<mxfile host="app.diagrams.net" agent="Mozilla/5.0 (X11; Ubuntu; Linux x86_64; rv:138.0) Gecko/20100101 Firefox/138.0" version="26.2.14">
  <diagram name="Page-1" id="BajXGiDGtNtVMGe9Nqyz">
    <mxGraphModel dx="815" dy="456" grid="1" gridSize="10" guides="1" tooltips="1" connect="1" arrows="1" fold="1" page="1" pageScale="1" pageWidth="850" pageHeight="1100" math="0" shadow="0">
      <root>
        <mxCell id="0" />
        <mxCell id="1" parent="0" />
        <mxCell id="UISm-Eijfibv8pY-J6u1-37" style="rounded=0;orthogonalLoop=1;jettySize=auto;html=1;exitX=1;exitY=0.5;exitDx=0;exitDy=0;entryX=0;entryY=0.5;entryDx=0;entryDy=0;" edge="1" parent="1" source="UISm-Eijfibv8pY-J6u1-26" target="UISm-Eijfibv8pY-J6u1-31">
          <mxGeometry relative="1" as="geometry" />
        </mxCell>
        <mxCell id="UISm-Eijfibv8pY-J6u1-38" style="rounded=0;orthogonalLoop=1;jettySize=auto;html=1;exitX=1;exitY=0.5;exitDx=0;exitDy=0;entryX=0;entryY=0.5;entryDx=0;entryDy=0;" edge="1" parent="1" source="UISm-Eijfibv8pY-J6u1-26" target="UISm-Eijfibv8pY-J6u1-32">
          <mxGeometry relative="1" as="geometry" />
        </mxCell>
        <mxCell id="UISm-Eijfibv8pY-J6u1-39" style="rounded=0;orthogonalLoop=1;jettySize=auto;html=1;exitX=1;exitY=0.5;exitDx=0;exitDy=0;entryX=0;entryY=0.5;entryDx=0;entryDy=0;" edge="1" parent="1" source="UISm-Eijfibv8pY-J6u1-26" target="UISm-Eijfibv8pY-J6u1-33">
          <mxGeometry relative="1" as="geometry" />
        </mxCell>
        <mxCell id="UISm-Eijfibv8pY-J6u1-40" style="rounded=0;orthogonalLoop=1;jettySize=auto;html=1;exitX=1;exitY=0.5;exitDx=0;exitDy=0;entryX=0;entryY=0.5;entryDx=0;entryDy=0;" edge="1" parent="1" source="UISm-Eijfibv8pY-J6u1-26" target="UISm-Eijfibv8pY-J6u1-34">
          <mxGeometry relative="1" as="geometry" />
        </mxCell>
        <mxCell id="UISm-Eijfibv8pY-J6u1-26" value="" style="ellipse;whiteSpace=wrap;html=1;aspect=fixed;" vertex="1" parent="1">
          <mxGeometry x="160" y="160" width="40" height="40" as="geometry" />
        </mxCell>
        <mxCell id="UISm-Eijfibv8pY-J6u1-41" style="rounded=0;orthogonalLoop=1;jettySize=auto;html=1;exitX=1;exitY=0.5;exitDx=0;exitDy=0;" edge="1" parent="1" source="UISm-Eijfibv8pY-J6u1-27">
          <mxGeometry relative="1" as="geometry">
            <mxPoint x="280" y="220" as="targetPoint" />
          </mxGeometry>
        </mxCell>
        <mxCell id="UISm-Eijfibv8pY-J6u1-42" style="rounded=0;orthogonalLoop=1;jettySize=auto;html=1;exitX=1;exitY=0.5;exitDx=0;exitDy=0;entryX=0;entryY=0.5;entryDx=0;entryDy=0;" edge="1" parent="1" source="UISm-Eijfibv8pY-J6u1-27" target="UISm-Eijfibv8pY-J6u1-32">
          <mxGeometry relative="1" as="geometry" />
        </mxCell>
        <mxCell id="UISm-Eijfibv8pY-J6u1-43" style="rounded=0;orthogonalLoop=1;jettySize=auto;html=1;exitX=1;exitY=0.5;exitDx=0;exitDy=0;entryX=0;entryY=0.5;entryDx=0;entryDy=0;" edge="1" parent="1" source="UISm-Eijfibv8pY-J6u1-27" target="UISm-Eijfibv8pY-J6u1-33">
          <mxGeometry relative="1" as="geometry" />
        </mxCell>
        <mxCell id="UISm-Eijfibv8pY-J6u1-44" style="rounded=0;orthogonalLoop=1;jettySize=auto;html=1;exitX=1;exitY=0.5;exitDx=0;exitDy=0;entryX=0;entryY=0.5;entryDx=0;entryDy=0;" edge="1" parent="1" source="UISm-Eijfibv8pY-J6u1-27" target="UISm-Eijfibv8pY-J6u1-34">
          <mxGeometry relative="1" as="geometry" />
        </mxCell>
        <mxCell id="UISm-Eijfibv8pY-J6u1-27" value="" style="ellipse;whiteSpace=wrap;html=1;aspect=fixed;" vertex="1" parent="1">
          <mxGeometry x="160" y="210" width="40" height="40" as="geometry" />
        </mxCell>
        <mxCell id="UISm-Eijfibv8pY-J6u1-45" style="rounded=0;orthogonalLoop=1;jettySize=auto;html=1;exitX=1;exitY=0.5;exitDx=0;exitDy=0;entryX=0;entryY=0.5;entryDx=0;entryDy=0;" edge="1" parent="1" source="UISm-Eijfibv8pY-J6u1-28" target="UISm-Eijfibv8pY-J6u1-31">
          <mxGeometry relative="1" as="geometry" />
        </mxCell>
        <mxCell id="UISm-Eijfibv8pY-J6u1-46" style="rounded=0;orthogonalLoop=1;jettySize=auto;html=1;exitX=1;exitY=0.5;exitDx=0;exitDy=0;entryX=0;entryY=0.5;entryDx=0;entryDy=0;" edge="1" parent="1" source="UISm-Eijfibv8pY-J6u1-28" target="UISm-Eijfibv8pY-J6u1-32">
          <mxGeometry relative="1" as="geometry" />
        </mxCell>
        <mxCell id="UISm-Eijfibv8pY-J6u1-47" style="rounded=0;orthogonalLoop=1;jettySize=auto;html=1;exitX=1;exitY=0.5;exitDx=0;exitDy=0;entryX=0;entryY=0.5;entryDx=0;entryDy=0;" edge="1" parent="1" source="UISm-Eijfibv8pY-J6u1-28" target="UISm-Eijfibv8pY-J6u1-33">
          <mxGeometry relative="1" as="geometry" />
        </mxCell>
        <mxCell id="UISm-Eijfibv8pY-J6u1-48" style="rounded=0;orthogonalLoop=1;jettySize=auto;html=1;exitX=1;exitY=0.5;exitDx=0;exitDy=0;entryX=0;entryY=0.5;entryDx=0;entryDy=0;" edge="1" parent="1" source="UISm-Eijfibv8pY-J6u1-28" target="UISm-Eijfibv8pY-J6u1-34">
          <mxGeometry relative="1" as="geometry" />
        </mxCell>
        <mxCell id="UISm-Eijfibv8pY-J6u1-28" value="" style="ellipse;whiteSpace=wrap;html=1;aspect=fixed;" vertex="1" parent="1">
          <mxGeometry x="160" y="260" width="40" height="40" as="geometry" />
        </mxCell>
        <mxCell id="UISm-Eijfibv8pY-J6u1-49" style="rounded=0;orthogonalLoop=1;jettySize=auto;html=1;exitX=1;exitY=0.5;exitDx=0;exitDy=0;entryX=0;entryY=0.5;entryDx=0;entryDy=0;" edge="1" parent="1" source="UISm-Eijfibv8pY-J6u1-29" target="UISm-Eijfibv8pY-J6u1-31">
          <mxGeometry relative="1" as="geometry" />
        </mxCell>
        <mxCell id="UISm-Eijfibv8pY-J6u1-50" style="rounded=0;orthogonalLoop=1;jettySize=auto;html=1;exitX=1;exitY=0.5;exitDx=0;exitDy=0;entryX=0;entryY=0.5;entryDx=0;entryDy=0;" edge="1" parent="1" source="UISm-Eijfibv8pY-J6u1-29" target="UISm-Eijfibv8pY-J6u1-32">
          <mxGeometry relative="1" as="geometry" />
        </mxCell>
        <mxCell id="UISm-Eijfibv8pY-J6u1-51" style="rounded=0;orthogonalLoop=1;jettySize=auto;html=1;exitX=1;exitY=0.5;exitDx=0;exitDy=0;" edge="1" parent="1" source="UISm-Eijfibv8pY-J6u1-29">
          <mxGeometry relative="1" as="geometry">
            <mxPoint x="280" y="320" as="targetPoint" />
          </mxGeometry>
        </mxCell>
        <mxCell id="UISm-Eijfibv8pY-J6u1-52" style="rounded=0;orthogonalLoop=1;jettySize=auto;html=1;exitX=1;exitY=0.5;exitDx=0;exitDy=0;entryX=0;entryY=0.5;entryDx=0;entryDy=0;" edge="1" parent="1" source="UISm-Eijfibv8pY-J6u1-29" target="UISm-Eijfibv8pY-J6u1-34">
          <mxGeometry relative="1" as="geometry" />
        </mxCell>
        <mxCell id="UISm-Eijfibv8pY-J6u1-29" value="" style="ellipse;whiteSpace=wrap;html=1;aspect=fixed;" vertex="1" parent="1">
          <mxGeometry x="160" y="310" width="40" height="40" as="geometry" />
        </mxCell>
        <mxCell id="UISm-Eijfibv8pY-J6u1-53" style="rounded=0;orthogonalLoop=1;jettySize=auto;html=1;exitX=1;exitY=0.5;exitDx=0;exitDy=0;entryX=0;entryY=0.5;entryDx=0;entryDy=0;" edge="1" parent="1" source="UISm-Eijfibv8pY-J6u1-30" target="UISm-Eijfibv8pY-J6u1-31">
          <mxGeometry relative="1" as="geometry" />
        </mxCell>
        <mxCell id="UISm-Eijfibv8pY-J6u1-54" style="rounded=0;orthogonalLoop=1;jettySize=auto;html=1;exitX=1;exitY=0.5;exitDx=0;exitDy=0;entryX=0;entryY=0.5;entryDx=0;entryDy=0;" edge="1" parent="1" source="UISm-Eijfibv8pY-J6u1-30" target="UISm-Eijfibv8pY-J6u1-32">
          <mxGeometry relative="1" as="geometry" />
        </mxCell>
        <mxCell id="UISm-Eijfibv8pY-J6u1-55" style="rounded=0;orthogonalLoop=1;jettySize=auto;html=1;exitX=1;exitY=0.5;exitDx=0;exitDy=0;entryX=0;entryY=0.5;entryDx=0;entryDy=0;" edge="1" parent="1" source="UISm-Eijfibv8pY-J6u1-30" target="UISm-Eijfibv8pY-J6u1-33">
          <mxGeometry relative="1" as="geometry" />
        </mxCell>
        <mxCell id="UISm-Eijfibv8pY-J6u1-56" style="rounded=0;orthogonalLoop=1;jettySize=auto;html=1;exitX=1;exitY=0.5;exitDx=0;exitDy=0;entryX=0;entryY=0.5;entryDx=0;entryDy=0;" edge="1" parent="1" source="UISm-Eijfibv8pY-J6u1-30" target="UISm-Eijfibv8pY-J6u1-34">
          <mxGeometry relative="1" as="geometry" />
        </mxCell>
        <mxCell id="UISm-Eijfibv8pY-J6u1-30" value="" style="ellipse;whiteSpace=wrap;html=1;aspect=fixed;" vertex="1" parent="1">
          <mxGeometry x="160" y="360" width="40" height="40" as="geometry" />
        </mxCell>
        <mxCell id="UISm-Eijfibv8pY-J6u1-57" style="rounded=0;orthogonalLoop=1;jettySize=auto;html=1;exitX=1;exitY=0.5;exitDx=0;exitDy=0;entryX=0;entryY=0.5;entryDx=0;entryDy=0;" edge="1" parent="1" source="UISm-Eijfibv8pY-J6u1-31" target="UISm-Eijfibv8pY-J6u1-35">
          <mxGeometry relative="1" as="geometry" />
        </mxCell>
        <mxCell id="UISm-Eijfibv8pY-J6u1-58" style="rounded=0;orthogonalLoop=1;jettySize=auto;html=1;exitX=1;exitY=0.5;exitDx=0;exitDy=0;entryX=0;entryY=0.5;entryDx=0;entryDy=0;" edge="1" parent="1" source="UISm-Eijfibv8pY-J6u1-31" target="UISm-Eijfibv8pY-J6u1-36">
          <mxGeometry relative="1" as="geometry" />
        </mxCell>
        <mxCell id="UISm-Eijfibv8pY-J6u1-31" value="" style="ellipse;whiteSpace=wrap;html=1;aspect=fixed;" vertex="1" parent="1">
          <mxGeometry x="280" y="200" width="40" height="40" as="geometry" />
        </mxCell>
        <mxCell id="UISm-Eijfibv8pY-J6u1-59" style="edgeStyle=orthogonalEdgeStyle;rounded=0;orthogonalLoop=1;jettySize=auto;html=1;exitX=1;exitY=0.5;exitDx=0;exitDy=0;" edge="1" parent="1" source="UISm-Eijfibv8pY-J6u1-32" target="UISm-Eijfibv8pY-J6u1-35">
          <mxGeometry relative="1" as="geometry" />
        </mxCell>
        <mxCell id="UISm-Eijfibv8pY-J6u1-60" style="rounded=0;orthogonalLoop=1;jettySize=auto;html=1;exitX=1;exitY=0.5;exitDx=0;exitDy=0;entryX=0;entryY=0.5;entryDx=0;entryDy=0;" edge="1" parent="1" source="UISm-Eijfibv8pY-J6u1-32" target="UISm-Eijfibv8pY-J6u1-36">
          <mxGeometry relative="1" as="geometry" />
        </mxCell>
        <mxCell id="UISm-Eijfibv8pY-J6u1-32" value="" style="ellipse;whiteSpace=wrap;html=1;aspect=fixed;" vertex="1" parent="1">
          <mxGeometry x="280" y="250" width="40" height="40" as="geometry" />
        </mxCell>
        <mxCell id="UISm-Eijfibv8pY-J6u1-61" style="rounded=0;orthogonalLoop=1;jettySize=auto;html=1;exitX=1;exitY=0.5;exitDx=0;exitDy=0;entryX=0;entryY=0.5;entryDx=0;entryDy=0;" edge="1" parent="1" source="UISm-Eijfibv8pY-J6u1-33" target="UISm-Eijfibv8pY-J6u1-35">
          <mxGeometry relative="1" as="geometry" />
        </mxCell>
        <mxCell id="UISm-Eijfibv8pY-J6u1-62" style="edgeStyle=orthogonalEdgeStyle;rounded=0;orthogonalLoop=1;jettySize=auto;html=1;exitX=1;exitY=0.5;exitDx=0;exitDy=0;" edge="1" parent="1" source="UISm-Eijfibv8pY-J6u1-33">
          <mxGeometry relative="1" as="geometry">
            <mxPoint x="370" y="320" as="targetPoint" />
          </mxGeometry>
        </mxCell>
        <mxCell id="UISm-Eijfibv8pY-J6u1-33" value="" style="ellipse;whiteSpace=wrap;html=1;aspect=fixed;" vertex="1" parent="1">
          <mxGeometry x="280" y="300" width="40" height="40" as="geometry" />
        </mxCell>
        <mxCell id="UISm-Eijfibv8pY-J6u1-63" style="rounded=0;orthogonalLoop=1;jettySize=auto;html=1;exitX=1;exitY=0.5;exitDx=0;exitDy=0;entryX=0;entryY=0.5;entryDx=0;entryDy=0;" edge="1" parent="1" source="UISm-Eijfibv8pY-J6u1-34" target="UISm-Eijfibv8pY-J6u1-35">
          <mxGeometry relative="1" as="geometry" />
        </mxCell>
        <mxCell id="UISm-Eijfibv8pY-J6u1-64" style="rounded=0;orthogonalLoop=1;jettySize=auto;html=1;exitX=1;exitY=0.5;exitDx=0;exitDy=0;entryX=0;entryY=0.5;entryDx=0;entryDy=0;" edge="1" parent="1" source="UISm-Eijfibv8pY-J6u1-34" target="UISm-Eijfibv8pY-J6u1-36">
          <mxGeometry relative="1" as="geometry" />
        </mxCell>
        <mxCell id="UISm-Eijfibv8pY-J6u1-34" value="" style="ellipse;whiteSpace=wrap;html=1;aspect=fixed;" vertex="1" parent="1">
          <mxGeometry x="280" y="350" width="40" height="40" as="geometry" />
        </mxCell>
        <mxCell id="UISm-Eijfibv8pY-J6u1-35" value="" style="ellipse;whiteSpace=wrap;html=1;aspect=fixed;" vertex="1" parent="1">
          <mxGeometry x="370" y="250" width="40" height="40" as="geometry" />
        </mxCell>
        <mxCell id="UISm-Eijfibv8pY-J6u1-36" value="" style="ellipse;whiteSpace=wrap;html=1;aspect=fixed;" vertex="1" parent="1">
          <mxGeometry x="370" y="300" width="40" height="40" as="geometry" />
        </mxCell>
        <mxCell id="UISm-Eijfibv8pY-J6u1-65" value="" style="endArrow=classic;html=1;rounded=0;" edge="1" parent="1">
          <mxGeometry width="50" height="50" relative="1" as="geometry">
            <mxPoint x="120" y="379.71" as="sourcePoint" />
            <mxPoint x="160" y="379.71" as="targetPoint" />
          </mxGeometry>
        </mxCell>
        <mxCell id="UISm-Eijfibv8pY-J6u1-66" value="" style="endArrow=classic;html=1;rounded=0;" edge="1" parent="1">
          <mxGeometry width="50" height="50" relative="1" as="geometry">
            <mxPoint x="120" y="329.71" as="sourcePoint" />
            <mxPoint x="160" y="329.71" as="targetPoint" />
          </mxGeometry>
        </mxCell>
        <mxCell id="UISm-Eijfibv8pY-J6u1-67" value="" style="endArrow=classic;html=1;rounded=0;" edge="1" parent="1">
          <mxGeometry width="50" height="50" relative="1" as="geometry">
            <mxPoint x="120" y="279.71" as="sourcePoint" />
            <mxPoint x="160" y="279.71" as="targetPoint" />
          </mxGeometry>
        </mxCell>
        <mxCell id="UISm-Eijfibv8pY-J6u1-68" value="" style="endArrow=classic;html=1;rounded=0;" edge="1" parent="1">
          <mxGeometry width="50" height="50" relative="1" as="geometry">
            <mxPoint x="120" y="229.70999999999998" as="sourcePoint" />
            <mxPoint x="160" y="229.70999999999998" as="targetPoint" />
          </mxGeometry>
        </mxCell>
        <mxCell id="UISm-Eijfibv8pY-J6u1-69" value="" style="endArrow=classic;html=1;rounded=0;" edge="1" parent="1">
          <mxGeometry width="50" height="50" relative="1" as="geometry">
            <mxPoint x="120" y="179.70999999999998" as="sourcePoint" />
            <mxPoint x="160" y="179.70999999999998" as="targetPoint" />
          </mxGeometry>
        </mxCell>
        <mxCell id="UISm-Eijfibv8pY-J6u1-70" value="" style="endArrow=classic;html=1;rounded=0;" edge="1" parent="1">
          <mxGeometry width="50" height="50" relative="1" as="geometry">
            <mxPoint x="410" y="319.71" as="sourcePoint" />
            <mxPoint x="450" y="319.71" as="targetPoint" />
          </mxGeometry>
        </mxCell>
        <mxCell id="UISm-Eijfibv8pY-J6u1-71" value="" style="endArrow=classic;html=1;rounded=0;" edge="1" parent="1">
          <mxGeometry width="50" height="50" relative="1" as="geometry">
            <mxPoint x="410" y="269.71" as="sourcePoint" />
            <mxPoint x="450" y="269.71" as="targetPoint" />
          </mxGeometry>
        </mxCell>
        <mxCell id="UISm-Eijfibv8pY-J6u1-72" value="" style="rounded=0;whiteSpace=wrap;html=1;fillColor=none;" vertex="1" parent="1">
          <mxGeometry x="150" y="150" width="60" height="260" as="geometry" />
        </mxCell>
        <mxCell id="UISm-Eijfibv8pY-J6u1-73" value="Input layer" style="text;html=1;align=center;verticalAlign=middle;whiteSpace=wrap;rounded=0;" vertex="1" parent="1">
          <mxGeometry x="150" y="410" width="60" height="30" as="geometry" />
        </mxCell>
        <mxCell id="UISm-Eijfibv8pY-J6u1-75" value="" style="rounded=0;whiteSpace=wrap;html=1;fillColor=none;" vertex="1" parent="1">
          <mxGeometry x="270" y="190" width="60" height="210" as="geometry" />
        </mxCell>
        <mxCell id="UISm-Eijfibv8pY-J6u1-76" value="Hidden layer" style="text;html=1;align=center;verticalAlign=middle;whiteSpace=wrap;rounded=0;" vertex="1" parent="1">
          <mxGeometry x="270" y="400" width="70" height="30" as="geometry" />
        </mxCell>
        <mxCell id="UISm-Eijfibv8pY-J6u1-77" value="" style="rounded=0;whiteSpace=wrap;html=1;fillColor=none;" vertex="1" parent="1">
          <mxGeometry x="360" y="240" width="60" height="110" as="geometry" />
        </mxCell>
        <mxCell id="UISm-Eijfibv8pY-J6u1-78" value="Output layer" style="text;html=1;align=center;verticalAlign=middle;whiteSpace=wrap;rounded=0;" vertex="1" parent="1">
          <mxGeometry x="360" y="350" width="70" height="30" as="geometry" />
        </mxCell>
      </root>
    </mxGraphModel>
  </diagram>
</mxfile>
